<svg width="205" height="200" viewBox="0 0 205 200" fill="none" xmlns="http://www.w3.org/2000/svg">
<g id="Group 8">
<rect id="Rectangle" x="102.431" y="107" width="102.431" height="100" transform="rotate(-180 102.431 107)" fill="#2C6269"/>
<path id="Combined Shape Copy" fill-rule="evenodd" clip-rule="evenodd" d="M102.431 207C159.001 207 204.861 162.228 204.861 107C204.861 51.7715 159.001 7 102.431 7C45.8597 7 0 51.7715 0 107C0 162.228 45.8597 207 102.431 207ZM102.431 140C121.099 140 136.233 125.225 136.233 107C136.233 88.7746 121.099 74 102.431 74C83.7622 74 68.6285 88.7746 68.6285 107C68.6285 125.225 83.7622 140 102.431 140Z" fill="#004047"/>
<path id="Combined Shape" fill-rule="evenodd" clip-rule="evenodd" d="M102.431 63H0V67H102.431V63ZM102.431 71H0V75H102.431V71ZM0 79H102.431V83H0V79ZM102.431 87H0V91H102.431V87ZM0 95H102.431V99H0V95ZM102.431 103H0V107H102.431V103Z" fill="#F67E7E"/>
<path id="Combined Shape_2" fill-rule="evenodd" clip-rule="evenodd" d="M0 -37H4.09722V-33H0V-37ZM11.2674 -37H7.17014V-33H11.2674V-37ZM11.2674 -29H7.17014V-25H11.2674V-29ZM7.17014 -21H11.2674V-17H7.17014V-21ZM11.2674 -13H7.17014V-9H11.2674V-13ZM7.17014 -5H11.2674V-1H7.17014V-5ZM11.2674 3H7.17014V7H11.2674V3ZM14.3403 -37H18.4375V-33H14.3403V-37ZM14.3403 -29H18.4375V-25H14.3403V-29ZM18.4375 -21H14.3403V-17H18.4375V-21ZM14.3403 -13H18.4375V-9H14.3403V-13ZM18.4375 -5H14.3403V-1H18.4375V-5ZM14.3403 3H18.4375V7H14.3403V3ZM0 -29H4.09722V-25H0V-29ZM21.5104 -37H25.6076V-33H21.5104V-37ZM21.5104 -29H25.6076V-25H21.5104V-29ZM25.6076 -21H21.5104V-17H25.6076V-21ZM21.5104 -13H25.6076V-9H21.5104V-13ZM25.6076 -5H21.5104V-1H25.6076V-5ZM21.5104 3H25.6076V7H21.5104V3ZM0 -21H4.09722V-17H0V-21ZM28.6806 -37H32.7778V-33H28.6806V-37ZM28.6806 -29H32.7778V-25H28.6806V-29ZM32.7778 -21H28.6806V-17H32.7778V-21ZM28.6806 -13H32.7778V-9H28.6806V-13ZM32.7778 -5H28.6806V-1H32.7778V-5ZM28.6806 3H32.7778V7H28.6806V3ZM0 -13H4.09722V-9H0V-13ZM35.8507 -37H39.9479V-33H35.8507V-37ZM35.8507 -29H39.9479V-25H35.8507V-29ZM39.9479 -21H35.8507V-17H39.9479V-21ZM35.8507 -13H39.9479V-9H35.8507V-13ZM39.9479 -5H35.8507V-1H39.9479V-5ZM35.8507 3H39.9479V7H35.8507V3ZM0 -5H4.09722V-1H0V-5ZM43.0208 -37H47.1181V-33H43.0208V-37ZM43.0208 -29H47.1181V-25H43.0208V-29ZM47.1181 -21H43.0208V-17H47.1181V-21ZM43.0208 -13H47.1181V-9H43.0208V-13ZM47.1181 -5H43.0208V-1H47.1181V-5ZM43.0208 3H47.1181V7H43.0208V3ZM0 3H4.09722V7H0V3ZM50.191 -37H54.2882V-33H50.191V-37ZM50.191 -29H54.2882V-25H50.191V-29ZM54.2882 -21H50.191V-17H54.2882V-21ZM50.191 -13H54.2882V-9H50.191V-13ZM54.2882 -5H50.191V-1H54.2882V-5ZM50.191 3H54.2882V7H50.191V3Z" fill="#79C8C7"/>
</g>
</svg>
